<svg width="240" height="180" viewBox="0 0 240 180" fill="none" xmlns="http://www.w3.org/2000/svg">
  <rect x="28" y="30" width="184" height="120" rx="24" fill="#F7F8FB"/>
  <path d="M63 61H177" stroke="#DDE2EA" stroke-width="8" stroke-linecap="round"/>
  <path d="M63 84H129" stroke="#DDE2EA" stroke-width="8" stroke-linecap="round"/>
  <circle cx="84" cy="120" r="27" fill="#17202F"/>
  <circle cx="84" cy="120" r="7" fill="#F7F8FB"/>
  <circle cx="84" cy="99" r="6" fill="#F7F8FB"/>
  <circle cx="104" cy="114" r="6" fill="#F7F8FB"/>
  <circle cx="96" cy="137" r="6" fill="#F7F8FB"/>
  <circle cx="72" cy="137" r="6" fill="#F7F8FB"/>
  <circle cx="64" cy="114" r="6" fill="#F7F8FB"/>
  <rect x="124" y="105" width="58" height="34" rx="13" fill="#1677F2"/>
  <path d="M139 119H169" stroke="white" stroke-width="5" stroke-linecap="round"/>
  <path d="M139 129H158" stroke="white" stroke-width="5" stroke-linecap="round" stroke-opacity="0.75"/>
  <path d="M50 153C76 142 107 143 132 153C151 160 174 160 194 150" stroke="#16C784" stroke-width="7" stroke-linecap="round"/>
  <path d="M52 36C80 25 110 26 139 36C158 43 184 42 205 34" stroke="#1677F2" stroke-width="6" stroke-linecap="round" stroke-opacity="0.22"/>
</svg>
